#!OML:ASF F:\VICON\USERDATA\INSTALL\rory3\rory3.ASF
:FULLY-SPECIFIED
:DEGREES
609
root -0.538859 15.33 14.6821 381.006 49.8433 -358.045
lowerback -12.7316 -0.297001 -0.164106
upperback -8.95434 -0.125948 -1.73577
thorax -2.26616 0.00755026 -1.73295
lowerneck -11.2465 -7.63805 -8.91409
upperneck 24.9923 -10.5527 7.13879
head 10.7535 -4.82255 2.68374
rclavicle 1.09804e-013 5.96354e-015
rhumerus -33.0526 -343.866 -440.132
rradius 67.6563
rwrist -72.8053
rhand 12.1497 8.06425
rfingers 7.12502
rthumb 37.1623 -17.9581
lclavicle 1.09804e-013 5.96354e-015
lhumerus -23.0724 -64.7216 69.8385
lradius 77.1164
lwrist 51.1149
lhand 29.618 27.4577
lfingers 7.12502
lthumb 53.3632 46.7174
rfemur -70.7094 2.1219 360.118
rtibia 42.941
rfoot 95.6947 165.401
rtoes 61.5847
lfemur -38.3285 21.1602 -33.0672
ltibia 58.1139
lfoot -232 -150.194
ltoes -2.72
610
root -0.488087 15.4714 15.044 377.023 52.1112 -355.174
lowerback -8.79155 -2.03088 -4.09997
upperback -6.74274 -2.2956 -1.35309
thorax -1.97352 -0.971856 0.734584
lowerneck -11.3934 -7.29533 -8.79151
upperneck 25.135 -10.0614 7.02537
head 10.7737 -4.59593 2.69109
rclavicle 2.60905e-015 -1.35174e-014
rhumerus -33.0866 -344.693 -438.172
rradius 65.2817
rwrist -70.0159
rhand 12.3588 8.45719
rfingers 7.12502
rthumb 37.36 -17.5133
lclavicle 2.60905e-015 -1.35174e-014
lhumerus -19.577 -65.4033 67.1537
lradius 75.5362
lwrist 48.8682
lhand 29.8153 28.4678
lfingers 7.12502
lthumb 53.5408 47.6117
rfemur -62.0664 1.74112 360.483
rtibia 43.6421
rfoot 96.9582 168.327
rtoes 61.5975
lfemur -27.7492 21.7843 -29.2373
ltibia 56.3509
lfoot -229.651 -151.683
ltoes -6.22721
611
root -0.45212 15.4509 15.1186 377.622 50.5407 -355.54
lowerback -9.54147 -2.02917 -3.40169
upperback -7.03145 -2.30223 -1.25848
thorax -1.88478 -0.993567 0.423107
lowerneck -11.7544 -6.91502 -8.60557
upperneck 25.2764 -9.48264 6.7884
head 10.8186 -4.33337 2.649
rclavicle -4.19684e-014 -4.85035e-014
rhumerus -32.8426 -344.681 -436.39
rradius 62.8933
rwrist -69.2588
rhand 10.9535 9.91053
rfingers 7.12502
rthumb 36.0301 -16.3986
lclavicle -4.19684e-014 -4.85035e-014
lhumerus -15.7338 -65.9425 64.0646
lradius 74.1114
lwrist 46.6459
lhand 29.5106 29.1215
lfingers 7.12502
lthumb 53.2664 48.4437
rfemur -63.298 1.97162 360.535
rtibia 43.7944
rfoot 98.248 168.463
rtoes 61.6136
lfemur -28.0698 21.3798 -29.4042
ltibia 55.7569
lfoot -230.237 -151.851
ltoes -5.66595
612
root -0.397129 15.4527 15.1873 377.643 49.7224 -355.638
lowerback -9.53267 -2.13961 -2.41686
upperback -7.08048 -2.52487 -1.37025
thorax -1.97693 -1.14366 -0.257868
lowerneck -12.1305 -6.62378 -8.26703
upperneck 25.4667 -9.08044 6.59223
head 10.8972 -4.13161 2.57101
rclavicle -1.28962e-014 3.97569e-016
rhumerus -32.5095 -345.425 -434.431
rradius 60.5028
rwrist -67.5748
rhand 11.8585 9.29737
rfingers 7.12502
rthumb 36.8869 -16.7963
lclavicle -1.28962e-014 3.97569e-016
lhumerus -11.6816 -66.513 60.5311
lradius 72.8128
lwrist 43.9147
lhand 29.4194 29.5137
lfingers 7.12502
lthumb 53.1842 48.8887
rfemur -63.289 1.87144 360.75
rtibia 44.2645
rfoot 99.6159 169.175
rtoes 61.7184
lfemur -26.7716 20.3459 -29.1197
ltibia 54.6518
lfoot -230.636 -151.99
ltoes -6.57835
613
root -0.404355 15.4287 15.2973 378.107 47.7925 -354.858
lowerback -8.92558 -2.14051 -3.32989
upperback -7.17681 -2.50073 -1.42408
thorax -2.37865 -1.09574 0.220367
lowerneck -12.7158 -6.34974 -8.17808
upperneck 25.8042 -8.67256 6.51647
head 11.0944 -3.93167 2.57504
rclavicle -6.70898e-015 3.1408e-014
rhumerus -32.2899 -345.89 -432.557
rradius 58.3018
rwrist -66.6717
rhand 12.7676 7.97946
rfingers 7.12502
rthumb 37.7464 -17.8883
lclavicle -6.70898e-015 3.1408e-014
lhumerus -7.77765 -66.7862 57.0105
lradius 71.4506
lwrist 40.4082
lhand 30.2004 29.7353
lfingers 7.12502
lthumb 53.887 48.6495
rfemur -63.4773 2.85577 360.396
rtibia 44.1398
rfoot 100.884 166.671
rtoes 61.6995
lfemur -25.7524 19.8286 -29.4767
ltibia 54.2457
lfoot -231.086 -151.927
ltoes -7.6373
614
root -0.344548 15.4325 15.4469 377.442 47.2046 -355.795
lowerback -9.4117 -2.26208 -2.60709
upperback -7.21113 -2.68811 -1.25303
thorax -2.1647 -1.21631 -0.0363318
lowerneck -12.7459 -6.09813 -7.9467
upperneck 25.9569 -8.36898 6.48367
head 11.117 -3.77416 2.57025
rclavicle -4.5969e-014 6.16232e-015
rhumerus -32.3632 -346.732 -430.69
rradius 55.8695
rwrist -65.1552
rhand 13.4337 7.63749
rfingers 7.12502
rthumb 38.3753 -18.0586
lclavicle -4.5969e-014 6.16232e-015
lhumerus -3.73896 -67.1919 53.3683
lradius 70.0843
lwrist 36.6355
lhand 31.6791 29.7288
lfingers 7.12502
lthumb 55.2098 47.7146
rfemur -63.3636 -3.11001 366.596
rtibia 44.1386
rfoot 111.215 156.517
rtoes 60.9444
lfemur -24.3385 18.8512 -28.1852
ltibia 53.6984
lfoot -230.971 -152.028
ltoes -9.34177
615
root -0.264353 15.4118 15.5315 377.97 46.7422 -355.918
lowerback -9.79055 -2.42715 -1.39238
upperback -7.68026 -2.9786 -1.37641
thorax -2.51269 -1.40452 -0.868013
lowerneck -12.5262 -5.80782 -7.63054
upperneck 26.0054 -7.99902 6.29969
head 11.0349 -3.60252 2.51027
rclavicle -1.21954e-013 -6.75868e-015
rhumerus -32.5301 -347.241 -428.91
rradius 53.3814
rwrist -63.4688
rhand 13.2341 7.93498
rfingers 7.12502
rthumb 38.1869 -17.8131
lclavicle -1.21954e-013 -6.75868e-015
lhumerus -0.287259 -67.3489 50.2521
lradius 68.7153
lwrist 32.8429
lhand 33.3267 29.4053
lfingers 7.12502
lthumb 56.6704 46.2626
rfemur -65.0334 -11.3739 373.691
rtibia 44.0909
rfoot 130.278 142.829
rtoes 57.4177
lfemur -23.8202 16.8293 -28.0549
ltibia 53.3533
lfoot -231.509 -152.116
ltoes -9.78412
616
root -0.210415 15.387 15.594 378.387 45.4444 -355.755
lowerback -9.38571 -2.44162 -0.612796
upperback -8.10477 -3.0664 -1.48359
thorax -3.23067 -1.48359 -1.39241
lowerneck -12.567 -5.46265 -7.39731
upperneck 26.0777 -7.48635 6.00914
head 11.0036 -3.38152 2.4385
rclavicle 1.12115e-013 4.13472e-014
rhumerus -32.1383 -347.363 -426.988
rradius 50.7568
rwrist -61.8833
rhand 13.0769 8.31661
rfingers 7.12502
rthumb 38.0385 -17.4721
lclavicle 1.12115e-013 4.13472e-014
lhumerus 3.34376 -67.1968 46.9679
lradius 67.1584
lwrist 29.5873
lhand 34.5318 29.1591
lfingers 7.12502
lthumb 57.7285 45.1217
rfemur -67.1756 -16.9389 379.432
rtibia 44.1203
rfoot 152.584 136.748
rtoes 50.6327
lfemur -23.0473 15.3304 -28.3194
ltibia 52.9815
lfoot -232.11 -152.007
ltoes -10.7473
617
root -0.236244 15.3846 15.8615 377.053 43.3168 -357.989
lowerback -10.3724 -2.33351 -1.41849
upperback -8.12347 -2.83548 -0.53225
thorax -2.61701 -1.30817 0.0161529
lowerneck -12.3889 -5.11872 -7.00932
upperneck 25.8523 -7.02341 5.75634
head 10.8193 -3.1704 2.3483
rclavicle -1.19519e-014 -7.95139e-016
rhumerus -31.5058 -347.868 -424.945
rradius 48.0893
rwrist -59.9099
rhand 13.0653 8.32269
rfingers 7.12502
rthumb 38.0275 -17.4691
lclavicle -1.19519e-014 -7.95139e-016
lhumerus 7.51917 -67.1707 43.2741
lradius 65.353
lwrist 27.3425
lhand 34.6251 28.7851
lfingers 7.12502
lthumb 57.8101 44.6758
rfemur -66.3406 -11.6339 379.445
rtibia 44.1093
rfoot 148.068 136.906
rtoes 50.887
lfemur -22.3118 16.1149 -25.9906
ltibia 52.7439
lfoot -231.467 -152.475
ltoes -12.752
618
root -0.220054 15.3769 16.0268 377.012 41.7056 -358.275
lowerback -10.5704 -2.38724 -1.92786
upperback -8.29189 -2.86296 -0.204995
thorax -2.64731 -1.29037 0.632313
lowerneck -12.1051 -4.74741 -6.77668
upperneck 25.4825 -6.51273 5.60419
head 10.572 -2.94317 2.32639
rclavicle 2.43511e-014 -1.51076e-014
rhumerus -30.7857 -348.244 -422.862
rradius 45.6098
rwrist -57.8992
rhand 12.7198 8.38639
rfingers 7.12502
rthumb 37.7011 -17.4935
lclavicle 2.43511e-014 -1.51076e-014
lhumerus 10.9618 -66.8649 40.1881
lradius 63.6856
lwrist 25.7298
lhand 34.3409 28.545
lfingers 7.12502
lthumb 57.5616 44.6535
rfemur -66.5617 -11.172 380.97
rtibia 44.2803
rfoot 152.268 137.025
rtoes 48.6274
lfemur -21.2462 15.7852 -25.5315
ltibia 52.275
lfoot -231.361 -152.095
ltoes -15.1781
619
root -0.195806 15.3623 16.1774 377.294 40.2851 -358.372
lowerback -10.9091 -2.45027 -2.27659
upperback -8.49748 -2.90822 0.0337893
thorax -2.65284 -1.28905 1.06143
lowerneck -11.8577 -4.41873 -6.51319
upperneck 25.1292 -6.04902 5.37534
head 10.3423 -2.74097 2.2628
rclavicle 9.12049e-014 1.21259e-014
rhumerus -30.1071 -348.543 -420.83
rradius 43.2731
rwrist -56.145
rhand 12.0625 8.86547
rfingers 7.12502
rthumb 37.0798 -17.1783
lclavicle 9.12049e-014 1.21259e-014
lhumerus 13.9023 -66.3801 37.5266
lradius 61.9257
lwrist 24.3315
lhand 33.9256 28.136
lfingers 7.12502
lthumb 57.1973 44.5564
rfemur -66.9421 -10.9319 382.317
rtibia 44.4099
rfoot 155.653 137.557
rtoes 46.5816
lfemur -20.536 15.4269 -25.394
ltibia 51.8785
lfoot -230.939 -151.414
ltoes -17.4253
